<?xml version="1.0" encoding="utf-8"?>
<!-- Generator: Adobe Illustrator 24.0.2, SVG Export Plug-In . SVG Version: 6.00 Build 0)  -->
<svg version="1.1" id="Layer_1" xmlns="http://www.w3.org/2000/svg" xmlns:xlink="http://www.w3.org/1999/xlink" x="0px" y="0px"
	 viewBox="0 0 500 500" style="enable-background:new 0 0 500 500;" xml:space="preserve">
<style type="text/css">
	.st0{fill:#92E3A9;}
	.st1{opacity:0.7;fill:#FFFFFF;enable-background:new    ;}
	.st2{fill:none;stroke:#263238;stroke-width:2;stroke-miterlimit:10;}
	.st3{fill:#92E3A9;stroke:#263238;stroke-miterlimit:10;}
	.st4{fill:none;stroke:#263238;stroke-width:0.5;stroke-miterlimit:10;}
	.st5{fill:#263238;stroke:#263238;stroke-miterlimit:10;}
	.st6{fill:#263238;}
	.st7{fill:#263238;stroke:#263238;stroke-linecap:round;stroke-linejoin:round;}
	.st8{opacity:0.2;}
	.st9{fill:none;stroke:#000000;stroke-miterlimit:10;}
	.st10{fill:#FFFFFF;stroke:#263238;stroke-linecap:round;stroke-linejoin:round;}
	.st11{fill:#D9D9D9;stroke:#263238;stroke-linecap:round;stroke-linejoin:round;}
	.st12{fill:#A8A8A8;stroke:#263238;stroke-linecap:round;stroke-linejoin:round;}
	.st13{fill:#D9D9D9;stroke:#B5B5B5;stroke-miterlimit:10;}
	.st14{opacity:0.3;enable-background:new    ;}
	.st15{fill:#92E3A9;stroke:#263238;stroke-linecap:round;stroke-linejoin:round;}
	.st16{fill:none;stroke:#263238;stroke-linecap:round;stroke-linejoin:round;}
	.st17{fill:#757575;stroke:#263238;stroke-linecap:round;stroke-linejoin:round;}
	.st18{fill:#B2B2B2;stroke:#263238;stroke-linecap:round;stroke-linejoin:round;}
	.st19{fill:#525252;stroke:#263238;stroke-linecap:round;stroke-linejoin:round;}
</style>
<g id="freepik--background-simple--inject-6">
	<path class="st0" d="M474.4,214.8c0,0-61.1-149-172.8-177.8S143.1,96.2,126,157.2S45.8,299,51.5,354.5
		c5.5,52.7,51.7,77.7,94.9,88.4c54.9,13.6,117.2,14.6,172.3,3.3c13.1-2.8,26-6.3,38.7-10.5c25.9-8.4,51.3-15,77.5-22
		c49.9-13.3,69.6-66.9,64-118.1C495.8,266.8,485.2,241,474.4,214.8z"/>
	<path class="st1" d="M474.4,214.8c0,0-61.1-149-172.8-177.8S143.1,96.2,126,157.2S45.8,299,51.5,354.5
		c5.5,52.7,51.7,77.7,94.9,88.4c54.9,13.6,117.2,14.6,172.3,3.3c13.1-2.8,26-6.3,38.7-10.5c25.9-8.4,51.3-15,77.5-22
		c49.9-13.3,69.6-66.9,64-118.1C495.8,266.8,485.2,241,474.4,214.8z"/>
</g>
<g id="freepik--Plants--inject-6">
	<line class="st2" x1="69.5" y1="224" x2="88" y2="400.7"/>
	<line class="st2" x1="85" y1="366.9" x2="76.6" y2="358.1"/>
	<path class="st3" d="M79.2,360.7c0-2.7-1.2-5.3-3.3-7.1c-2.1-1.9-13.4-6.7-14.5-2.7C60.2,355.3,71.7,363.8,79.2,360.7z"/>
	<line class="st4" x1="79.2" y1="360.7" x2="68.4" y2="354"/>
	<line class="st2" x1="87.1" y1="387" x2="78.7" y2="378.2"/>
	<path class="st3" d="M81.3,380.8c0-2.7-1.2-5.3-3.3-7.1c-2.1-1.9-13.4-6.7-14.5-2.7C62.3,375.4,73.9,383.9,81.3,380.8z"/>
	<line class="st4" x1="81.3" y1="380.8" x2="70.5" y2="374.1"/>
	<line class="st2" x1="79.9" y1="317.9" x2="71.5" y2="309"/>
	<path class="st3" d="M74,311.7c0-2.7-1.2-5.3-3.3-7.1c-2.2-1.9-13.5-6.7-14.5-2.7C55,306.3,66.6,314.7,74,311.7z"/>
	<line class="st4" x1="74" y1="311.7" x2="63.3" y2="305"/>
	<line class="st2" x1="82" y1="338" x2="73.6" y2="329.1"/>
	<path class="st3" d="M76.1,331.8c0-2.7-1.2-5.3-3.3-7.1c-2.1-1.9-13.4-6.7-14.5-2.7C57.1,326.3,68.7,334.8,76.1,331.8z"/>
	<line class="st4" x1="76.1" y1="331.8" x2="65.4" y2="325.1"/>
	<line class="st2" x1="76.5" y1="285.2" x2="68.1" y2="276.4"/>
	<path class="st3" d="M70.6,279c0-2.7-1.3-5.3-3.3-7.1c-2.2-1.9-13.5-6.7-14.5-2.7C51.6,273.6,63.2,282.1,70.6,279z"/>
	<line class="st4" x1="70.6" y1="279" x2="59.9" y2="272.3"/>
	<line class="st2" x1="73" y1="252.4" x2="64.7" y2="243.6"/>
	<path class="st3" d="M67.2,246.3c0-2.8-1.2-5.4-3.4-7.1c-2.2-1.9-13.5-6.7-14.5-2.7C48.2,240.8,59.8,249.3,67.2,246.3z"/>
	<line class="st4" x1="67.2" y1="246.2" x2="56.5" y2="239.5"/>
	<line class="st2" x1="83.6" y1="355" x2="89.9" y2="344.6"/>
	<path class="st3" d="M88,347.8c-0.5-2.7,0.1-5.5,1.8-7.6c1.7-2.3,11.8-9.3,13.6-5.6C105.5,338.5,95.9,349.2,88,347.8z"/>
	<line class="st4" x1="88" y1="347.8" x2="97.7" y2="338.5"/>
	<line class="st2" x1="78.1" y1="302.1" x2="84.4" y2="291.8"/>
	<path class="st3" d="M82.5,294.9c-0.5-2.7,0.1-5.4,1.8-7.6C86,285,96,278,97.9,281.6C100,285.6,90.4,296.3,82.5,294.9z"/>
	<line class="st4" x1="82.5" y1="294.9" x2="92.2" y2="285.6"/>
	<line class="st2" x1="75.6" y1="278.9" x2="82" y2="268.5"/>
	<path class="st3" d="M80.1,271.6c-0.5-2.7,0.1-5.5,1.8-7.6c1.7-2.3,11.8-9.3,13.7-5.6C97.5,262.4,88,273.1,80.1,271.6z"/>
	<line class="st4" x1="80.1" y1="271.6" x2="89.7" y2="262.4"/>
	<line class="st2" x1="72.1" y1="244.8" x2="78.4" y2="234.4"/>
	<path class="st3" d="M76.5,237.5c-0.5-2.7,0.1-5.5,1.8-7.6c1.7-2.3,11.8-9.3,13.6-5.6C94,228.3,84.4,239,76.5,237.5z"/>
	<line class="st4" x1="76.5" y1="237.5" x2="86.2" y2="228.3"/>
	<path class="st3" d="M69.4,223c-0.5-2.7,0.1-5.5,1.8-7.6c1.7-2.3,11.8-9.3,13.6-5.6C86.9,213.8,77.3,224.5,69.4,223z"/>
	<line class="st4" x1="69.4" y1="223" x2="79" y2="213.8"/>
	<path class="st3" d="M69.9,223.4c-2.7,0.2-5.4-0.7-7.4-2.6c-2.1-1.9-8-12.7-4.2-14.2C62.5,205.1,72.2,215.7,69.9,223.4z"/>
	<line class="st4" x1="69.9" y1="223.4" x2="61.7" y2="212.8"/>
	<line class="st2" x1="118.2" y1="248.3" x2="99.8" y2="425.1"/>
	<line class="st2" x1="103.9" y1="391.4" x2="97.5" y2="381"/>
	<path class="st3" d="M99.5,384.1c0.5-2.7-0.1-5.5-1.8-7.6c-1.7-2.3-11.8-9.3-13.6-5.6C82,374.9,91.5,385.6,99.5,384.1z"/>
	<line class="st4" x1="99.5" y1="384.1" x2="90.3" y2="375.3"/>
	<line class="st2" x1="109" y1="342.3" x2="102.6" y2="332"/>
	<path class="st3" d="M104.5,335.1c0.5-2.7-0.1-5.5-1.8-7.6c-1.7-2.3-11.8-9.3-13.6-5.6C87.1,325.8,96.6,336.5,104.5,335.1z"/>
	<line class="st4" x1="104.5" y1="335.1" x2="95.4" y2="326.3"/>
	<line class="st2" x1="106.9" y1="362.4" x2="100.5" y2="352.1"/>
	<path class="st3" d="M102.5,355.2c0.5-2.7-0.1-5.5-1.8-7.6c-1.7-2.3-11.8-9.3-13.6-5.6C85,345.9,94.5,356.6,102.5,355.2z"/>
	<line class="st4" x1="102.5" y1="355.2" x2="93.3" y2="346.4"/>
	<line class="st2" x1="112.4" y1="309.7" x2="106" y2="299.3"/>
	<path class="st3" d="M107.9,302.4c0.5-2.7-0.1-5.5-1.8-7.6c-1.7-2.3-11.8-9.3-13.7-5.6C90.5,293.2,100,303.9,107.9,302.4z"/>
	<line class="st4" x1="107.9" y1="302.4" x2="98.8" y2="293.6"/>
	<line class="st2" x1="115.8" y1="276.9" x2="109.4" y2="266.5"/>
	<path class="st3" d="M111.3,269.6c0.5-2.7-0.1-5.5-1.8-7.6c-1.7-2.3-11.8-9.3-13.7-5.6C93.9,260.4,103.4,271.1,111.3,269.6z"/>
	<line class="st4" x1="111.3" y1="269.6" x2="102.2" y2="260.9"/>
	<line class="st2" x1="105" y1="379.4" x2="113.3" y2="370.6"/>
	<path class="st3" d="M110.8,373.3c0-2.7,1.2-5.3,3.3-7.1c2.1-1.9,13.4-6.7,14.5-2.7C129.8,367.8,118.2,376.3,110.8,373.3z"/>
	<line class="st4" x1="110.8" y1="373.3" x2="122.2" y2="366.2"/>
	<line class="st2" x1="110.4" y1="326.5" x2="118.8" y2="317.7"/>
	<path class="st3" d="M116.3,320.4c0-2.7,1.2-5.3,3.3-7.1c2.1-1.9,13.4-6.7,14.5-2.7C135.3,314.9,123.7,323.4,116.3,320.4z"/>
	<line class="st4" x1="116.3" y1="320.4" x2="127.6" y2="313.3"/>
	<line class="st2" x1="112.9" y1="303.3" x2="121.2" y2="294.5"/>
	<path class="st3" d="M118.7,297.1c0-2.7,1.2-5.3,3.3-7.1c2.1-1.9,13.4-6.7,14.5-2.7C137.7,291.6,126.1,300.2,118.7,297.1z"/>
	<line class="st4" x1="118.7" y1="297.1" x2="130.1" y2="290.1"/>
	<line class="st2" x1="116.4" y1="269.2" x2="124.7" y2="260.4"/>
	<path class="st3" d="M122.2,263c0-2.7,1.2-5.3,3.3-7.1c2.1-1.9,13.4-6.7,14.5-2.7C141.2,257.6,129.7,266.1,122.2,263z"/>
	<line class="st4" x1="122.2" y1="263" x2="133.6" y2="256"/>
	<path class="st3" d="M118.2,247.3c0-2.7,1.2-5.3,3.3-7.1c2.2-1.9,13.4-6.7,14.5-2.7C137.2,241.9,125.7,250.4,118.2,247.3z"/>
	<line class="st4" x1="118.2" y1="247.3" x2="129.6" y2="240.3"/>
	<path class="st3" d="M118.7,247.9c-2.7-0.3-5.2-1.8-6.7-4.1c-1.7-2.3-5.2-14.1-1.2-14.7C115.2,228.4,122.5,240.8,118.7,247.9z"/>
	<line class="st4" x1="118.7" y1="247.9" x2="112.9" y2="235.8"/>
	<line class="st2" x1="97.1" y1="176.4" x2="97.1" y2="399.9"/>
	<line class="st2" x1="97.3" y1="366.3" x2="89.9" y2="356.6"/>
	<path class="st3" d="M92.2,359.5c0.3-2.7-0.7-5.4-2.6-7.4c-1.9-2.1-12.7-8-14.2-4.2C73.9,352.1,84.5,361.8,92.2,359.5z"/>
	<line class="st4" x1="92.2" y1="359.5" x2="82.2" y2="351.7"/>
	<line class="st2" x1="97.3" y1="324.3" x2="89.9" y2="314.6"/>
	<path class="st3" d="M92.2,317.5c0.3-2.7-0.7-5.4-2.6-7.4c-1.9-2.1-12.7-8-14.2-4.2C73.9,310.1,84.5,319.8,92.2,317.5z"/>
	<line class="st4" x1="92.2" y1="317.5" x2="82.2" y2="309.7"/>
	<line class="st2" x1="97.3" y1="274.9" x2="89.9" y2="265.3"/>
	<path class="st3" d="M92.2,268.2c0.3-2.7-0.7-5.4-2.6-7.4c-1.9-2.1-12.7-8-14.2-4.2C73.9,260.8,84.5,270.4,92.2,268.2z"/>
	<line class="st4" x1="92.2" y1="268.2" x2="82.2" y2="260.4"/>
	<line class="st2" x1="97.3" y1="242.1" x2="89.9" y2="232.5"/>
	<path class="st3" d="M92.2,235.4c0.3-2.7-0.7-5.4-2.6-7.4c-1.9-2.1-12.7-8-14.2-4.2C73.9,228,84.5,237.6,92.2,235.4z"/>
	<line class="st4" x1="92.2" y1="235.4" x2="82.2" y2="227.6"/>
	<line class="st2" x1="97.3" y1="209.2" x2="89.9" y2="199.5"/>
	<path class="st3" d="M92.2,202.4c0.3-2.7-0.7-5.4-2.6-7.4c-1.9-2.1-12.7-8-14.2-4.2C73.9,195,84.5,204.6,92.2,202.4z"/>
	<line class="st4" x1="92.2" y1="202.4" x2="82.2" y2="194.6"/>
	<line class="st2" x1="97.2" y1="379.1" x2="104.6" y2="369.4"/>
	<path class="st3" d="M102.3,372.3c-0.2-2.7,0.7-5.4,2.6-7.4c1.9-2.1,12.7-8,14.2-4.2C120.6,364.9,110,374.6,102.3,372.3z"/>
	<line class="st4" x1="102.3" y1="372.3" x2="112.9" y2="364.1"/>
	<line class="st2" x1="97.2" y1="312.3" x2="104.6" y2="302.6"/>
	<path class="st3" d="M102.3,305.5c-0.2-2.7,0.7-5.4,2.6-7.4c1.9-2.1,12.7-8,14.2-4.2C120.6,298.1,110,307.8,102.3,305.5z"/>
	<line class="st4" x1="102.3" y1="305.5" x2="112.9" y2="297.3"/>
	<line class="st2" x1="97.2" y1="279.3" x2="104.6" y2="269.7"/>
	<path class="st3" d="M102.3,272.6c-0.2-2.7,0.7-5.4,2.6-7.4c1.9-2.1,12.7-8,14.2-4.2C120.6,265.2,110,274.8,102.3,272.6z"/>
	<line class="st4" x1="102.3" y1="272.6" x2="112.9" y2="264.4"/>
	<line class="st2" x1="97.2" y1="235.7" x2="104.6" y2="226.1"/>
	<path class="st3" d="M102.3,229c-0.2-2.7,0.7-5.4,2.6-7.4c1.9-2.1,12.7-8,14.2-4.2C120.6,221.6,110,231.3,102.3,229z"/>
	<line class="st4" x1="102.3" y1="229" x2="112.9" y2="220.8"/>
	<line class="st2" x1="97.2" y1="201.5" x2="104.6" y2="191.8"/>
	<path class="st3" d="M102.3,194.7c-0.2-2.7,0.7-5.4,2.6-7.4c1.9-2.1,12.7-8,14.2-4.2C120.6,187.3,110,197,102.3,194.7z"/>
	<line class="st4" x1="102.3" y1="194.7" x2="112.9" y2="186.5"/>
	<path class="st3" d="M96.7,179.5c-0.2-2.7,0.7-5.4,2.6-7.4c1.9-2.1,12.7-8,14.2-4.2C115.1,172.1,104.4,181.8,96.7,179.5z"/>
	<line class="st4" x1="96.7" y1="179.5" x2="107.3" y2="171.3"/>
	<path class="st3" d="M97.2,180c-2.7,0-5.3-1.3-7.1-3.3c-1.9-2.1-6.7-13.4-2.7-14.5C91.8,161,100.3,172.5,97.2,180z"/>
	<line class="st4" x1="97.2" y1="180" x2="90.2" y2="168.6"/>
	<polygon class="st5" points="106.3,457.8 82.7,457.8 79.7,398.1 109.3,398.1 	"/>
	<path class="st0" d="M400.2,318.7c0.1-1.9,0.6-3.8,1.5-5.5c1.4-2.3,6.4-3.9,9.1-2.8c1.3,0.5,2.6,1.2,3.9,1.9
		c-2.6,0.8-5.1,2-7.4,3.5C405.1,317.2,402.7,318.2,400.2,318.7z"/>
	<path class="st0" d="M394.9,320.3c1.9-1.9,3.1-4.3,3.5-6.9c0.5-4-3.8,1.7-3.8,1.7s-2.1-8.1-3.4-3.6S394.9,320.3,394.9,320.3z"/>
	<path class="st0" d="M389.1,319.1c0,0,0.8-3.8-0.6-6.4s-5-2.4-8.7-1.3c-1.5,0.6-3.1,0.9-4.8,1.1c2.5,1.7,5.2,3.2,7.9,4.4
		C385,317.8,387,318.5,389.1,319.1z"/>
	<path class="st6" d="M394.9,332.6c0.2,0,0.3-0.1,0.3-0.3v-18c0-0.2-0.1-0.3-0.3-0.3c0,0,0,0,0,0c-0.2,0-0.3,0.1-0.3,0.3l0,0v18
		C394.5,332.5,394.6,332.6,394.9,332.6C394.8,332.6,394.9,332.6,394.9,332.6z"/>
	<path class="st6" d="M393.4,332.6L393.4,332.6c0.2,0,0.3-0.2,0.3-0.4c-0.1-0.5-1.6-11.1-6.7-17c-0.1-0.1-0.3-0.1-0.5,0
		c-0.1,0.1-0.1,0.3,0,0.5c0,0,0,0,0,0c5,5.8,6.6,16.6,6.6,16.7C393.1,332.5,393.2,332.6,393.4,332.6z"/>
	<path class="st6" d="M396.4,332.4L396.4,332.4c0.2,0,0.3-0.1,0.3-0.3c0-0.1,0-10.4,6-15.2c0.2-0.1,0.2-0.3,0.1-0.5
		s-0.3-0.2-0.5-0.1c0,0,0,0-0.1,0.1c-6.3,5.1-6.3,15.3-6.3,15.7C396,332.3,396.2,332.4,396.4,332.4
		C396.4,332.4,396.4,332.4,396.4,332.4z"/>
	<path class="st6" d="M391.4,332.3L391.4,332.3c0.3,0,0.4-0.2,0.3-0.4c0,0,0,0,0,0c-0.6-2.2-1.6-4.3-2.9-6.1
		c-0.1-0.1-0.3-0.2-0.5-0.1c0,0,0,0,0,0c-0.1,0.1-0.2,0.3-0.1,0.5c1.3,1.8,2.2,3.8,2.8,5.9C391.1,332.2,391.2,332.3,391.4,332.3z"/>
	<path class="st0" d="M389.4,327.3c0,0,0.1-3.5-1.4-4s-2.9,0.8-4,1.5s-2.4,1.5-2.4,3.8c0.1,2.2,0.4,4.3,0.9,6.4c0,0,1.3-3.9,3.4-5.7
		C386.9,328.4,388.1,327.7,389.4,327.3z"/>
	<path class="st6" d="M398.7,332.4c0.1,0,0.3-0.1,0.3-0.2c0.6-1.9,1.8-3.6,3.3-4.9c0.2-0.1,0.2-0.3,0.1-0.5
		c-0.1-0.2-0.3-0.2-0.5-0.1c0,0,0,0-0.1,0c-1.6,1.4-2.8,3.2-3.5,5.2c-0.1,0.2,0,0.3,0.2,0.4c0,0,0,0,0,0L398.7,332.4z"/>
	<path class="st0" d="M400.2,328.4c-0.3-1.3,0-2.8,0.8-3.9c1.3-1.6,4.3-1.3,5.8,0.5s3.6,7,3.6,7c-1.9-1.4-4.2-2.3-6.5-2.4
		C400.3,329.6,400.2,328.4,400.2,328.4z"/>
	<polygon class="st7" points="390.2,351.7 400.2,351.7 405.2,335.1 385.2,335.1 	"/>
	<rect x="385.1" y="332.3" class="st7" width="20.2" height="2.8"/>
</g>
<g id="freepik--Graphics--inject-6">
	<g class="st8">
		<path d="M403.1,282.8c-0.5-0.1-0.8-0.6-0.8-1.1c0-0.1,0-0.1,0.1-0.2l0-0.1c0.2-0.5,0.7-0.8,1.2-0.6c0,0,0.1,0,0.1,0
			c0.8,0.3,1.6,0.7,2.3,1.2c-0.3-0.9-0.4-1.8-0.4-2.7c0-0.6,0.4-1,0.9-1.1c0,0,0,0,0.1,0h0.1c0.6,0,1,0.4,1,1c0,0,0,0,0,0.1
			c0,0.9-0.2,1.8-0.4,2.7c0.7-0.5,1.5-0.9,2.3-1.2c0.5-0.2,1,0,1.2,0.4c0,0.1,0,0.1,0.1,0.2v0.1c0.2,0.5,0,1-0.5,1.2
			c-0.1,0-0.1,0.1-0.2,0.1c-0.8,0.2-1.7,0.4-2.6,0.4c0.7,0.5,1.4,1.1,1.9,1.8c0.3,0.4,0.3,1.1-0.2,1.4c0,0,0,0,0,0l-0.1,0.1
			c-0.4,0.3-1,0.3-1.3-0.1c0-0.1-0.1-0.1-0.1-0.2c-0.5-0.7-0.9-1.5-1.2-2.4c-0.3,0.8-0.7,1.6-1.2,2.4c-0.2,0.5-0.8,0.6-1.3,0.4
			c-0.1,0-0.1-0.1-0.2-0.1l-0.1-0.1c-0.4-0.3-0.5-1-0.2-1.4c0,0,0,0,0,0c0.6-0.7,1.2-1.3,1.9-1.8C404.8,283.1,404,283,403.1,282.8z"
			/>
		<path d="M413.3,282.8c-0.5-0.1-0.8-0.6-0.8-1.1c0-0.1,0-0.1,0.1-0.2l0-0.1c0.2-0.5,0.7-0.8,1.2-0.6c0,0,0.1,0,0.1,0
			c0.8,0.3,1.6,0.7,2.3,1.2c-0.3-0.9-0.4-1.8-0.4-2.7c0-0.6,0.4-1,0.9-1.1c0,0,0,0,0.1,0h0.1c0.6,0,1,0.4,1,1c0,0,0,0,0,0.1
			c0,0.9-0.2,1.8-0.4,2.7c0.7-0.5,1.5-0.9,2.3-1.2c0.5-0.2,1.1,0,1.3,0.6c0,0,0,0,0,0v0.1c0.2,0.5,0,1-0.5,1.2
			c-0.1,0-0.1,0.1-0.2,0.1c-0.8,0.2-1.7,0.4-2.6,0.4c0.7,0.5,1.4,1.1,1.9,1.8c0.3,0.4,0.3,1.1-0.2,1.4c0,0,0,0,0,0l-0.1,0.1
			c-0.4,0.3-1,0.3-1.3-0.1c0-0.1-0.1-0.1-0.1-0.2c-0.5-0.7-0.9-1.5-1.2-2.4c-0.3,0.8-0.7,1.6-1.2,2.4c-0.2,0.5-0.8,0.6-1.3,0.4
			c-0.1,0-0.1-0.1-0.2-0.1l-0.1-0.1c-0.4-0.3-0.5-1-0.2-1.4c0,0,0,0,0,0c0.6-0.7,1.2-1.3,1.9-1.8C415,283.1,414.1,283,413.3,282.8z"
			/>
		<path d="M423.4,282.8c-0.5-0.1-0.9-0.7-0.7-1.2c0,0,0,0,0-0.1l0-0.1c0.2-0.5,0.7-0.8,1.2-0.6c0,0,0.1,0,0.1,0
			c0.8,0.3,1.6,0.7,2.3,1.2c-0.3-0.9-0.4-1.8-0.4-2.7c0-0.6,0.4-1,0.9-1.1c0,0,0,0,0.1,0h0.1c0.6,0,1,0.4,1,1c0,0,0,0,0,0.1
			c0,0.9-0.2,1.8-0.4,2.7c0.7-0.5,1.5-0.9,2.3-1.2c0.5-0.2,1.1,0,1.3,0.6c0,0,0,0,0,0v0.1c0.2,0.5,0,1-0.5,1.2
			c-0.1,0-0.1,0.1-0.2,0.1c-0.8,0.2-1.7,0.4-2.6,0.4c0.7,0.5,1.4,1.1,1.9,1.8c0.3,0.4,0.3,1.1-0.2,1.4c0,0,0,0,0,0l-0.1,0.1
			c-0.4,0.3-1,0.3-1.3-0.1c0-0.1-0.1-0.1-0.1-0.2c-0.5-0.7-0.9-1.5-1.2-2.4c-0.3,0.8-0.7,1.6-1.2,2.4c-0.2,0.5-0.8,0.6-1.3,0.4
			c-0.1,0-0.1-0.1-0.2-0.1l-0.1-0.1c-0.4-0.3-0.5-1-0.2-1.4c0,0,0,0,0,0c0.6-0.7,1.2-1.3,1.9-1.8C425.1,283.1,424.3,283,423.4,282.8
			z"/>
		<path d="M433.5,282.8c-0.5-0.1-0.9-0.7-0.7-1.2c0,0,0,0,0-0.1v-0.1c0.2-0.5,0.7-0.8,1.2-0.6c0,0,0.1,0,0.1,0
			c0.8,0.3,1.6,0.7,2.3,1.2c-0.2-0.9-0.4-1.8-0.4-2.7c0-0.6,0.4-1,0.9-1.1c0,0,0,0,0.1,0h0.1c0.6,0,1,0.4,1,1c0,0,0,0,0,0.1
			c0,0.9-0.2,1.8-0.4,2.7c0.7-0.5,1.5-0.9,2.3-1.2c0.5-0.2,1.1,0,1.3,0.6c0,0,0,0,0,0v0.1c0.2,0.5,0,1-0.5,1.2
			c-0.1,0-0.1,0.1-0.2,0.1c-0.8,0.2-1.7,0.4-2.6,0.4c0.7,0.5,1.4,1.1,1.9,1.8c0.3,0.4,0.3,1.1-0.2,1.4c0,0,0,0,0,0l-0.1,0.1
			c-0.4,0.3-1,0.3-1.3-0.1c0-0.1-0.1-0.1-0.1-0.2c-0.5-0.7-0.9-1.5-1.2-2.4c-0.3,0.8-0.8,1.6-1.3,2.4c-0.2,0.5-0.8,0.6-1.3,0.4
			c-0.1,0-0.1-0.1-0.2-0.1l-0.1-0.1c-0.4-0.3-0.5-1-0.2-1.4c0,0,0,0,0,0c0.6-0.7,1.2-1.3,1.9-1.8C435.2,283.1,434.4,283,433.5,282.8
			z"/>
		<path d="M443.7,282.8c-0.5-0.1-0.9-0.7-0.7-1.2c0,0,0,0,0-0.1l0-0.1c0.2-0.5,0.8-0.8,1.3-0.6c0,0,0,0,0,0c0.8,0.3,1.6,0.7,2.3,1.2
			c-0.2-0.9-0.4-1.8-0.4-2.7c0-0.6,0.4-1,0.9-1.1c0,0,0,0,0.1,0h0.1c0.6,0,1,0.4,1,1c0,0,0,0,0,0.1c0,0.9-0.2,1.8-0.4,2.7
			c0.7-0.5,1.5-0.9,2.3-1.2c0.5-0.2,1.1,0,1.3,0.6c0,0,0,0,0,0v0.1c0.2,0.5,0,1-0.5,1.2c-0.1,0-0.1,0.1-0.2,0.1
			c-0.8,0.2-1.7,0.4-2.6,0.4c0.7,0.5,1.4,1.1,1.9,1.8c0.3,0.4,0.3,1.1-0.2,1.4c0,0,0,0,0,0l-0.1,0.1c-0.4,0.3-1,0.3-1.3-0.1
			c0-0.1-0.1-0.1-0.1-0.2c-0.5-0.7-0.9-1.5-1.2-2.4c-0.3,0.8-0.7,1.6-1.2,2.4c-0.2,0.5-0.8,0.6-1.3,0.4c-0.1,0-0.1-0.1-0.2-0.1
			l-0.1-0.1c-0.4-0.3-0.5-0.9-0.2-1.3c0,0,0.1-0.1,0.1-0.1c0.6-0.7,1.2-1.3,1.9-1.8C445.4,283.1,444.5,283,443.7,282.8z"/>
		<path d="M453.9,282.8c-0.5-0.1-0.9-0.7-0.7-1.2c0,0,0,0,0-0.1l0-0.1c0.2-0.5,0.8-0.8,1.3-0.6c0,0,0,0,0,0c0.8,0.3,1.6,0.7,2.3,1.2
			c-0.2-0.9-0.4-1.8-0.4-2.7c0-0.6,0.4-1,0.9-1.1c0,0,0,0,0.1,0h0.1c0.6,0,1,0.4,1,1c0,0,0,0,0,0.1c0,0.9-0.2,1.8-0.4,2.7
			c0.7-0.5,1.5-0.9,2.3-1.2c0.5-0.2,1,0,1.2,0.5c0,0,0,0.1,0.1,0.1v0.1c0.2,0.5,0,1-0.5,1.2c-0.1,0-0.1,0.1-0.2,0.1
			c-0.8,0.2-1.7,0.4-2.6,0.4c0.7,0.5,1.4,1.1,1.9,1.8c0.3,0.4,0.3,1.1-0.2,1.4c0,0,0,0,0,0l-0.1,0.1c-0.4,0.3-1,0.3-1.3-0.1
			c0-0.1-0.1-0.1-0.1-0.2c-0.5-0.7-0.9-1.5-1.2-2.4c-0.3,0.8-0.7,1.6-1.2,2.4c-0.2,0.5-0.8,0.6-1.3,0.4c-0.1,0-0.1-0.1-0.2-0.1
			l-0.1-0.1c-0.4-0.3-0.5-0.9-0.2-1.3c0,0,0.1-0.1,0.1-0.1c0.6-0.7,1.2-1.3,1.9-1.8C455.6,283.1,454.7,283,453.9,282.8z"/>
		<path d="M464,282.8c-0.5-0.1-0.9-0.7-0.7-1.2c0,0,0,0,0-0.1l0-0.1c0.2-0.5,0.8-0.8,1.3-0.6c0,0,0,0,0,0c0.8,0.3,1.6,0.7,2.3,1.2
			c-0.2-0.9-0.4-1.8-0.4-2.7c0-0.6,0.4-1,0.9-1.1c0,0,0,0,0.1,0h0.1c0.6,0,1,0.4,1,1c0,0,0,0,0,0.1c0,0.9-0.2,1.8-0.4,2.7
			c0.7-0.5,1.5-0.9,2.3-1.2c0.5-0.2,1,0,1.2,0.5c0,0,0,0.1,0.1,0.1v0.1c0.2,0.5,0,1-0.5,1.2c-0.1,0-0.1,0.1-0.2,0.1
			c-0.8,0.2-1.7,0.4-2.6,0.4c0.7,0.5,1.4,1.1,1.9,1.8c0.3,0.4,0.3,1.1-0.2,1.4c0,0,0,0,0,0l-0.1,0.1c-0.4,0.3-1,0.3-1.3-0.1
			c0-0.1-0.1-0.1-0.1-0.2c-0.5-0.7-0.9-1.5-1.2-2.4c-0.3,0.8-0.7,1.6-1.2,2.4c-0.2,0.5-0.8,0.6-1.3,0.4c-0.1,0-0.1-0.1-0.2-0.1
			l-0.1-0.1c-0.4-0.3-0.5-0.9-0.2-1.3c0,0,0.1-0.1,0.1-0.1c0.6-0.7,1.2-1.3,1.9-1.8C465.7,283.1,464.8,283,464,282.8z"/>
		<path d="M474.1,282.8c-0.5-0.1-0.9-0.7-0.7-1.2c0,0,0,0,0-0.1v-0.1c0.2-0.5,0.8-0.8,1.3-0.6c0,0,0,0,0,0c0.8,0.3,1.6,0.7,2.3,1.2
			c-0.2-0.9-0.4-1.8-0.4-2.7c0-0.6,0.4-1,0.9-1.1c0,0,0,0,0.1,0h0.1c0.6,0,1,0.4,1,1c0,0,0,0,0,0.1c0,0.9-0.2,1.8-0.4,2.7
			c0.7-0.5,1.5-0.9,2.3-1.2c0.5-0.2,1,0,1.2,0.5c0,0,0,0.1,0.1,0.1v0.1c0.2,0.5,0,1-0.5,1.2c-0.1,0-0.1,0.1-0.2,0.1
			c-0.8,0.2-1.7,0.4-2.6,0.4c0.7,0.5,1.4,1.1,1.9,1.8c0.3,0.4,0.3,1.1-0.2,1.4c0,0,0,0,0,0l-0.1,0.1c-0.4,0.3-1,0.3-1.3-0.1
			c0-0.1-0.1-0.1-0.1-0.2c-0.5-0.7-0.9-1.5-1.2-2.4c-0.3,0.8-0.7,1.6-1.2,2.4c-0.2,0.5-0.8,0.6-1.3,0.4c-0.1,0-0.1-0.1-0.2-0.1
			l-0.1-0.1c-0.4-0.3-0.5-0.9-0.2-1.3c0,0,0.1-0.1,0.1-0.1c0.6-0.7,1.2-1.3,1.9-1.8C475.8,283.1,474.9,283,474.1,282.8z"/>
	</g>
	<g class="st8">
		<path d="M203.7,58.3c-0.5-0.1-0.9-0.6-0.8-1.1c0-0.1,0-0.1,0.1-0.2l0.1-0.1c0.2-0.5,0.7-0.8,1.2-0.6c0,0,0.1,0,0.1,0
			c0.8,0.3,1.6,0.7,2.3,1.2c-0.2-0.9-0.4-1.8-0.4-2.7c-0.1-0.5,0.3-1,0.8-1c0.1,0,0.1,0,0.2,0h0.1c0.6,0,1,0.4,1,1c0,0,0,0,0,0.1
			c0,0.9-0.2,1.8-0.4,2.7c0.7-0.5,1.5-0.9,2.3-1.2c0.5-0.2,1,0,1.2,0.5c0,0,0,0.1,0.1,0.1V57c0.2,0.5,0,1-0.5,1.2
			c-0.1,0-0.1,0.1-0.2,0.1c-0.8,0.2-1.7,0.4-2.6,0.4c0.7,0.5,1.4,1.1,1.9,1.8c0.3,0.4,0.3,1.1-0.2,1.4c0,0,0,0,0,0l-0.1,0.1
			c-0.4,0.3-1.1,0.2-1.4-0.2c0,0,0,0,0-0.1c-0.5-0.8-0.9-1.6-1.2-2.4c-0.3,0.8-0.7,1.6-1.2,2.4c-0.3,0.5-0.9,0.6-1.4,0.3
			c0,0,0,0-0.1,0l-0.1-0.1c-0.4-0.3-0.5-1-0.2-1.4c0,0,0,0,0,0c0.6-0.7,1.2-1.3,1.9-1.8C205.4,58.6,204.5,58.5,203.7,58.3z"/>
		<path d="M213.8,58.3c-0.5-0.1-0.9-0.6-0.8-1.1c0-0.1,0-0.1,0.1-0.2l0.1-0.1c0.2-0.5,0.7-0.8,1.2-0.6c0,0,0.1,0,0.1,0
			c0.8,0.3,1.6,0.7,2.3,1.2c-0.2-0.9-0.4-1.8-0.4-2.7c-0.1-0.5,0.3-1,0.8-1c0.1,0,0.1,0,0.2,0h0.1c0.5,0,1,0.4,1,0.9
			c0,0.1,0,0.1,0,0.2c0,0.9-0.2,1.8-0.4,2.7c0.7-0.5,1.5-0.9,2.3-1.2c0.5-0.2,1,0,1.2,0.5c0,0,0,0.1,0.1,0.1V57c0.2,0.5,0,1-0.5,1.2
			c-0.1,0-0.1,0.1-0.2,0.1c-0.8,0.2-1.7,0.4-2.6,0.4c0.7,0.5,1.4,1.1,1.9,1.8c0.3,0.4,0.3,1.1-0.2,1.4c0,0,0,0,0,0l-0.1,0.1
			c-0.4,0.3-1.1,0.2-1.4-0.2c0,0,0,0,0-0.1c-0.5-0.8-0.9-1.6-1.2-2.4c-0.3,0.8-0.7,1.6-1.2,2.4c-0.3,0.5-0.9,0.6-1.4,0.3
			c0,0,0,0-0.1,0l-0.1-0.1c-0.4-0.3-0.5-1-0.2-1.4c0,0,0,0,0,0c0.6-0.7,1.2-1.3,1.9-1.8C215.5,58.6,214.6,58.5,213.8,58.3z"/>
		<path d="M223.9,58.3c-0.5-0.1-0.9-0.6-0.8-1.1c0-0.1,0-0.1,0.1-0.2l0.1-0.1c0.2-0.5,0.7-0.8,1.2-0.6c0,0,0.1,0,0.1,0
			c0.8,0.3,1.6,0.7,2.3,1.2c-0.2-0.9-0.4-1.8-0.4-2.7c-0.1-0.5,0.3-1,0.8-1c0.1,0,0.1,0,0.2,0h0.1c0.5,0,1,0.4,1,0.9
			c0,0.1,0,0.1,0,0.2c0,0.9-0.2,1.8-0.4,2.7c0.7-0.5,1.5-0.9,2.3-1.2c0.5-0.2,1,0,1.2,0.5c0,0,0,0.1,0.1,0.1V57c0.2,0.5,0,1-0.5,1.2
			c-0.1,0-0.1,0.1-0.2,0.1c-0.8,0.2-1.7,0.4-2.6,0.4c0.7,0.5,1.4,1.1,1.9,1.8c0.3,0.4,0.3,1.1-0.2,1.4c0,0,0,0,0,0l-0.1,0.1
			c-0.4,0.3-1.1,0.2-1.4-0.2c0,0,0,0,0-0.1c-0.5-0.8-0.9-1.6-1.2-2.4c-0.3,0.8-0.7,1.6-1.2,2.4c-0.3,0.5-0.9,0.6-1.4,0.3
			c0,0,0,0-0.1,0l-0.1-0.1c-0.4-0.3-0.5-1-0.2-1.4c0,0,0,0,0,0c0.6-0.7,1.2-1.3,1.9-1.8C225.6,58.6,224.8,58.5,223.9,58.3z"/>
		<path d="M234.1,58.3c-0.5-0.1-0.9-0.6-0.8-1.1c0-0.1,0-0.1,0.1-0.2l0.1-0.1c0.2-0.5,0.7-0.8,1.2-0.6c0,0,0.1,0,0.1,0
			c0.8,0.3,1.6,0.7,2.3,1.2c-0.2-0.9-0.4-1.8-0.4-2.7c-0.1-0.5,0.3-1,0.8-1c0.1,0,0.1,0,0.2,0h0.1c0.5,0,1,0.4,1,0.9
			c0,0.1,0,0.1,0,0.2c0,0.9-0.2,1.8-0.4,2.7c0.7-0.5,1.5-0.9,2.3-1.2c0.5-0.2,1,0,1.2,0.5c0,0,0,0.1,0.1,0.1V57c0.2,0.5,0,1-0.5,1.2
			c-0.1,0-0.1,0.1-0.2,0.1c-0.8,0.2-1.7,0.4-2.6,0.4c0.7,0.5,1.4,1.1,1.9,1.8c0.3,0.4,0.3,1.1-0.2,1.4c0,0,0,0,0,0l-0.1,0.1
			c-0.5,0.3-1.1,0.2-1.4-0.3c0,0,0,0,0,0c-0.5-0.8-0.9-1.6-1.2-2.4c-0.3,0.8-0.7,1.6-1.2,2.4c-0.3,0.5-0.9,0.6-1.4,0.3
			c0,0,0,0-0.1,0l-0.1-0.1c-0.4-0.3-0.5-1-0.2-1.4c0,0,0,0,0,0c0.6-0.7,1.2-1.3,1.9-1.8C235.8,58.6,234.9,58.5,234.1,58.3z"/>
		<path d="M244.2,58.3c-0.5-0.1-0.9-0.6-0.8-1.1c0-0.1,0-0.1,0.1-0.2l0.1-0.1c0.1-0.5,0.7-0.8,1.2-0.6c0,0,0.1,0,0.1,0.1
			c0.8,0.3,1.6,0.7,2.3,1.2c-0.2-0.9-0.4-1.8-0.4-2.7c-0.1-0.5,0.3-1,0.8-1c0.1,0,0.1,0,0.2,0h0.1c0.5,0,1,0.4,1,0.9
			c0,0.1,0,0.1,0,0.2c0,0.9-0.2,1.8-0.4,2.7c0.7-0.5,1.5-0.9,2.3-1.2c0.5-0.2,1,0,1.2,0.5c0,0,0,0.1,0.1,0.1V57c0.2,0.5,0,1-0.5,1.2
			c-0.1,0-0.1,0.1-0.2,0.1c-0.8,0.2-1.7,0.4-2.6,0.4c0.7,0.5,1.4,1.1,1.9,1.8c0.3,0.4,0.3,1.1-0.2,1.4c0,0,0,0,0,0l-0.1,0.1
			c-0.4,0.3-1.1,0.2-1.4-0.2c0,0,0,0,0-0.1c-0.5-0.8-0.9-1.6-1.2-2.4c-0.3,0.8-0.7,1.6-1.2,2.4c-0.3,0.5-0.9,0.6-1.4,0.3
			c0,0,0,0-0.1,0l-0.1-0.1c-0.4-0.3-0.5-1-0.2-1.4c0,0,0,0,0,0c0.6-0.7,1.2-1.3,1.9-1.8C245.9,58.6,245.1,58.5,244.2,58.3z"/>
		<path d="M254.4,58.3c-0.5-0.1-0.9-0.7-0.7-1.2c0,0,0,0,0-0.1l0.1-0.1c0.2-0.5,0.7-0.8,1.2-0.6c0,0,0.1,0,0.1,0
			c0.8,0.3,1.6,0.7,2.3,1.2c-0.3-0.9-0.4-1.8-0.4-2.7c-0.1-0.5,0.3-1,0.8-1c0.1,0,0.1,0,0.2,0h0.1c0.5,0,1,0.4,1,0.9
			c0,0.1,0,0.1,0,0.2c0,0.9-0.2,1.8-0.4,2.7c0.7-0.5,1.5-0.9,2.3-1.2c0.5-0.2,1,0,1.2,0.5c0,0,0,0.1,0.1,0.1V57c0.2,0.5,0,1-0.5,1.2
			c-0.1,0-0.1,0.1-0.2,0.1c-0.8,0.2-1.7,0.4-2.6,0.4c0.7,0.5,1.4,1.1,1.9,1.8c0.3,0.4,0.3,1.1-0.2,1.4c0,0,0,0,0,0l-0.1,0.1
			c-0.4,0.3-1.1,0.2-1.4-0.2c0,0,0,0,0-0.1c-0.5-0.8-0.9-1.6-1.2-2.4c-0.3,0.8-0.7,1.6-1.2,2.4c-0.3,0.5-0.9,0.6-1.4,0.3
			c0,0,0,0-0.1,0l-0.1-0.1c-0.4-0.3-0.5-1-0.2-1.4c0,0,0,0,0,0c0.6-0.7,1.2-1.3,1.9-1.8C256.1,58.6,255.2,58.5,254.4,58.3z"/>
		<path d="M264.5,58.3c-0.5-0.1-0.8-0.6-0.8-1.1c0-0.1,0-0.1,0.1-0.2v-0.1c0.2-0.5,0.7-0.8,1.2-0.6c0,0,0.1,0,0.1,0
			c0.8,0.3,1.6,0.7,2.3,1.2c-0.3-0.9-0.4-1.8-0.4-2.7c0-0.6,0.4-1,0.9-1c0,0,0,0,0.1,0h0.1c0.5,0,1,0.4,1,0.9c0,0.1,0,0.1,0,0.2
			c0,0.9-0.2,1.8-0.4,2.7c0.7-0.5,1.5-0.9,2.3-1.2c0.5-0.2,1,0,1.2,0.5c0,0,0,0.1,0.1,0.1V57c0.2,0.5,0,1-0.5,1.2
			c-0.1,0-0.1,0.1-0.2,0.1c-0.8,0.2-1.7,0.4-2.6,0.4c0.7,0.5,1.4,1.1,1.9,1.8c0.3,0.4,0.3,1.1-0.2,1.4c0,0,0,0,0,0l-0.1,0.1
			c-0.4,0.3-1.1,0.2-1.4-0.2c0,0,0,0,0-0.1c-0.5-0.8-0.9-1.6-1.1-2.4c-0.3,0.8-0.7,1.6-1.2,2.4c-0.3,0.5-0.9,0.6-1.4,0.3
			c0,0,0,0-0.1,0l-0.1-0.1c-0.4-0.3-0.5-1-0.2-1.4c0,0,0,0,0,0c0.6-0.7,1.2-1.3,1.9-1.8C266.2,58.6,265.3,58.5,264.5,58.3z"/>
		<path d="M274.6,58.3c-0.5-0.1-0.8-0.6-0.8-1.1c0-0.1,0-0.1,0.1-0.2l0.1-0.1c0.2-0.5,0.7-0.8,1.2-0.6c0,0,0.1,0,0.1,0
			c0.8,0.3,1.6,0.7,2.3,1.2c-0.3-0.9-0.4-1.8-0.4-2.7c-0.1-0.5,0.3-1,0.8-1c0.1,0,0.1,0,0.2,0h0.1c0.5,0,1,0.4,1,0.9
			c0,0.1,0,0.1,0,0.2c0,0.9-0.2,1.8-0.4,2.7c0.7-0.5,1.5-0.9,2.3-1.2c0.5-0.2,1,0,1.2,0.5c0,0,0,0.1,0.1,0.1V57c0.2,0.5,0,1-0.5,1.2
			c-0.1,0-0.1,0.1-0.2,0.1c-0.8,0.2-1.7,0.4-2.6,0.4c0.7,0.5,1.4,1.1,1.9,1.8c0.3,0.4,0.3,1.1-0.2,1.4c0,0,0,0,0,0l-0.1,0.1
			c-0.4,0.3-1.1,0.2-1.4-0.2c0,0,0,0,0-0.1c-0.5-0.8-0.9-1.6-1.2-2.4c-0.3,0.8-0.7,1.6-1.2,2.4c-0.3,0.5-0.9,0.6-1.4,0.3
			c0,0,0,0-0.1,0l-0.1-0.1c-0.4-0.3-0.5-1-0.2-1.4c0,0,0,0,0,0c0.6-0.7,1.2-1.3,1.9-1.8C276.3,58.6,275.5,58.5,274.6,58.3z"/>
	</g>
	<g class="st8">
		<path d="M288.5,374.9c-0.5-0.1-0.9-0.6-0.8-1.1c0-0.1,0-0.1,0.1-0.2l0-0.1c0.2-0.5,0.8-0.8,1.3-0.6c0,0,0,0,0,0
			c0.8,0.3,1.6,0.7,2.3,1.2c-0.2-0.9-0.4-1.8-0.4-2.6c-0.1-0.5,0.3-1,0.8-1.1c0.1,0,0.1,0,0.2,0h0.1c0.6,0,1,0.4,1,1c0,0,0,0,0,0.1
			c0,0.9-0.2,1.8-0.4,2.6c0.7-0.5,1.5-0.9,2.3-1.2c0.5-0.2,1,0,1.2,0.5c0,0,0,0.1,0.1,0.1v0.1c0.2,0.5,0,1-0.4,1.2
			c-0.1,0-0.2,0.1-0.2,0.1c-0.8,0.2-1.7,0.4-2.6,0.4c0.7,0.5,1.4,1.1,1.9,1.8c0.3,0.4,0.3,1.1-0.2,1.4c0,0,0,0,0,0l-0.1,0.1
			c-0.4,0.3-1.1,0.2-1.4-0.2c0,0,0,0,0-0.1c-0.5-0.7-0.9-1.5-1.2-2.4c-0.3,0.8-0.8,1.6-1.3,2.4c-0.2,0.5-0.8,0.6-1.3,0.4
			c-0.1,0-0.1-0.1-0.2-0.1l-0.1-0.1c-0.4-0.3-0.5-0.9-0.2-1.3c0,0,0.1-0.1,0.1-0.1c0.6-0.7,1.2-1.3,1.9-1.8
			C290.2,375.2,289.4,375.1,288.5,374.9z"/>
		<path d="M298.7,374.9c-0.5-0.1-0.9-0.6-0.8-1.1c0-0.1,0-0.1,0.1-0.2l0.1-0.1c0.2-0.5,0.7-0.8,1.2-0.6c0,0,0.1,0,0.1,0
			c0.8,0.3,1.6,0.7,2.3,1.2c-0.2-0.9-0.4-1.8-0.4-2.6c-0.1-0.5,0.3-1,0.8-1.1c0.1,0,0.1,0,0.2,0h0.1c0.6,0,1,0.4,1,1c0,0,0,0,0,0.1
			c0,0.9-0.2,1.8-0.4,2.6c0.7-0.5,1.5-0.9,2.3-1.2c0.5-0.2,1,0,1.2,0.5c0,0,0,0.1,0.1,0.1v0.1c0.2,0.5,0,1-0.4,1.2
			c-0.1,0-0.2,0.1-0.2,0.1c-0.8,0.2-1.7,0.4-2.6,0.4c0.7,0.5,1.4,1.1,1.9,1.8c0.3,0.4,0.3,1.1-0.2,1.4c0,0,0,0,0,0l-0.1,0.1
			c-0.4,0.3-1.1,0.2-1.4-0.2c0,0,0,0,0-0.1c-0.5-0.7-0.9-1.5-1.2-2.4c-0.3,0.8-0.7,1.6-1.2,2.4c-0.3,0.5-0.9,0.6-1.4,0.3
			c0,0,0,0-0.1,0l-0.1-0.1c-0.4-0.3-0.5-0.9-0.2-1.3c0,0,0.1-0.1,0.1-0.1c0.6-0.7,1.2-1.3,1.9-1.8
			C300.4,375.2,299.5,375.1,298.7,374.9z"/>
		<path d="M308.9,374.9c-0.5-0.1-0.9-0.6-0.8-1.1c0-0.1,0-0.1,0.1-0.2l0.1-0.1c0.2-0.5,0.7-0.8,1.2-0.6c0,0,0.1,0,0.1,0
			c0.8,0.3,1.6,0.7,2.3,1.2c-0.2-0.9-0.4-1.8-0.4-2.6c-0.1-0.5,0.3-1,0.8-1.1c0.1,0,0.1,0,0.2,0h0.1c0.6,0,1,0.4,1,1c0,0,0,0,0,0.1
			c0,0.9-0.2,1.8-0.4,2.6c0.7-0.5,1.5-0.9,2.3-1.2c0.5-0.2,1,0,1.2,0.5c0,0,0,0.1,0.1,0.1v0.1c0.2,0.5,0,1-0.4,1.2
			c-0.1,0-0.2,0.1-0.2,0.1c-0.8,0.2-1.7,0.4-2.6,0.4c0.7,0.5,1.4,1.1,1.9,1.8c0.3,0.4,0.3,1.1-0.2,1.4c0,0,0,0,0,0l-0.1,0.1
			c-0.4,0.3-1.1,0.2-1.4-0.2c0,0,0,0,0-0.1c-0.5-0.7-0.9-1.5-1.2-2.4c-0.3,0.8-0.7,1.6-1.2,2.4c-0.3,0.5-0.9,0.6-1.4,0.3
			c0,0,0,0-0.1,0l-0.1-0.1c-0.4-0.3-0.5-1-0.2-1.4c0,0,0,0,0,0c0.6-0.7,1.2-1.3,1.9-1.8C310.6,375.2,309.7,375.1,308.9,374.9z"/>
		<path d="M319,374.9c-0.5-0.1-0.9-0.6-0.8-1.1c0-0.1,0-0.1,0.1-0.2l0.1-0.1c0.2-0.5,0.7-0.8,1.2-0.6c0,0,0.1,0,0.1,0
			c0.8,0.3,1.6,0.7,2.3,1.2c-0.2-0.9-0.4-1.8-0.4-2.6c-0.1-0.5,0.3-1,0.8-1.1c0.1,0,0.1,0,0.2,0h0.1c0.6,0,1,0.4,1,1c0,0,0,0,0,0.1
			c0,0.9-0.2,1.8-0.4,2.6c0.7-0.5,1.5-0.9,2.3-1.2c0.5-0.2,1,0,1.2,0.5c0,0,0,0.1,0.1,0.1v0.1c0.2,0.5,0,1-0.4,1.2
			c-0.1,0-0.2,0.1-0.2,0.1c-0.8,0.2-1.7,0.4-2.6,0.4c0.7,0.5,1.4,1.1,1.9,1.8c0.3,0.4,0.3,1.1-0.2,1.4c0,0,0,0,0,0l-0.1,0.1
			c-0.4,0.3-1.1,0.2-1.4-0.2c0,0,0,0,0-0.1c-0.5-0.7-0.9-1.5-1.2-2.4c-0.3,0.8-0.7,1.6-1.2,2.4c-0.3,0.5-0.9,0.6-1.4,0.3
			c0,0,0,0-0.1,0l-0.1-0.1c-0.4-0.3-0.5-1-0.2-1.4c0,0,0,0,0,0c0.6-0.7,1.2-1.3,1.9-1.8C320.7,375.2,319.8,375.1,319,374.9z"/>
		<path d="M329.1,374.9c-0.5-0.1-0.9-0.6-0.8-1.1c0-0.1,0-0.1,0.1-0.2l0.1-0.1c0.2-0.5,0.7-0.8,1.2-0.6c0,0,0.1,0,0.1,0
			c0.8,0.3,1.6,0.7,2.3,1.2c-0.2-0.9-0.4-1.8-0.4-2.6c0-0.6,0.4-1,0.9-1.1c0,0,0,0,0.1,0h0.1c0.6,0,1,0.4,1,1c0,0,0,0,0,0.1
			c0,0.9-0.2,1.8-0.4,2.6c0.7-0.5,1.5-0.9,2.3-1.2c0.5-0.2,1,0,1.2,0.5c0,0,0,0.1,0.1,0.1v0.1c0.2,0.5,0,1-0.4,1.2
			c-0.1,0-0.2,0.1-0.2,0.1c-0.8,0.2-1.7,0.4-2.6,0.4c0.7,0.5,1.4,1.1,1.9,1.8c0.3,0.4,0.3,1.1-0.2,1.4c0,0,0,0,0,0l-0.1,0.1
			c-0.4,0.3-1.1,0.2-1.4-0.2c0,0,0,0,0-0.1c-0.5-0.7-0.9-1.5-1.2-2.4c-0.3,0.8-0.7,1.6-1.2,2.4c-0.3,0.5-0.9,0.6-1.4,0.3
			c0,0,0,0-0.1,0l-0.1-0.1c-0.4-0.3-0.5-1-0.2-1.4c0,0,0,0,0,0c0.6-0.7,1.2-1.3,1.9-1.8C330.8,375.2,329.9,375.1,329.1,374.9z"/>
		<path d="M339.2,374.9c-0.5-0.1-0.9-0.6-0.8-1.1c0-0.1,0-0.1,0.1-0.2l0.1-0.1c0.2-0.5,0.7-0.8,1.2-0.6c0,0,0.1,0,0.1,0
			c0.8,0.3,1.6,0.7,2.3,1.2c-0.2-0.9-0.4-1.8-0.4-2.6c0-0.6,0.4-1,0.9-1.1c0,0,0,0,0.1,0h0.1c0.6,0,1,0.4,1,1c0,0,0,0,0,0.1
			c0,0.9-0.2,1.8-0.4,2.6c0.7-0.5,1.5-0.9,2.3-1.2c0.5-0.2,1,0,1.2,0.5c0,0,0,0.1,0.1,0.1v0.1c0.2,0.5,0,1-0.4,1.2
			c-0.1,0-0.2,0.1-0.2,0.1c-0.8,0.2-1.7,0.4-2.6,0.4c0.7,0.5,1.4,1.1,1.9,1.8c0.3,0.4,0.3,1.1-0.2,1.4c0,0,0,0,0,0l-0.1,0.1
			c-0.4,0.3-1.1,0.2-1.4-0.2c0,0,0,0,0-0.1c-0.5-0.7-0.9-1.5-1.2-2.4c-0.3,0.8-0.7,1.6-1.2,2.4c-0.3,0.5-0.9,0.6-1.4,0.3
			c0,0,0,0-0.1,0l-0.1-0.1c-0.4-0.3-0.5-1-0.2-1.4c0,0,0,0,0,0c0.6-0.7,1.2-1.3,1.9-1.8C340.9,375.2,340.1,375.1,339.2,374.9z"/>
		<path d="M349.4,374.9c-0.5-0.1-0.9-0.6-0.8-1.1c0-0.1,0-0.1,0.1-0.2l0.1-0.1c0.2-0.5,0.7-0.8,1.2-0.6c0,0,0.1,0,0.1,0
			c0.8,0.3,1.6,0.7,2.3,1.2c-0.2-0.9-0.4-1.8-0.4-2.6c0-0.6,0.4-1,0.9-1.1c0,0,0,0,0.1,0h0.1c0.6,0,1,0.4,1,1c0,0,0,0,0,0.1
			c0,0.9-0.2,1.8-0.4,2.6c0.7-0.5,1.5-0.9,2.3-1.2c0.5-0.2,1,0,1.2,0.5c0,0,0,0.1,0.1,0.1v0.1c0.2,0.5,0,1-0.4,1.2
			c-0.1,0-0.2,0.1-0.2,0.1c-0.8,0.2-1.7,0.4-2.6,0.4c0.7,0.5,1.4,1.1,1.9,1.8c0.3,0.4,0.3,1.1-0.2,1.4c0,0,0,0,0,0l-0.1,0.1
			c-0.4,0.3-1.1,0.2-1.4-0.2c0,0,0,0,0-0.1c-0.5-0.7-0.9-1.5-1.2-2.4c-0.3,0.8-0.7,1.6-1.2,2.4c-0.3,0.5-0.9,0.6-1.4,0.3
			c0,0,0,0-0.1,0l-0.1-0.1c-0.4-0.3-0.5-1-0.2-1.4c0,0,0,0,0,0c0.6-0.7,1.2-1.3,1.9-1.8C351.1,375.2,350.2,375.1,349.4,374.9z"/>
		<path d="M359.5,374.9c-0.5-0.1-0.9-0.6-0.8-1.1c0-0.1,0-0.1,0.1-0.2l0.1-0.1c0.2-0.5,0.7-0.8,1.2-0.6c0,0,0.1,0,0.1,0
			c0.8,0.3,1.6,0.7,2.3,1.2c-0.2-0.9-0.4-1.8-0.4-2.6c0-0.6,0.4-1,0.9-1.1c0,0,0,0,0.1,0h0.1c0.6,0,1,0.4,1,1c0,0,0,0,0,0.1
			c0,0.9-0.2,1.8-0.4,2.6c0.7-0.5,1.5-0.9,2.3-1.2c0.5-0.2,1,0,1.2,0.5c0,0,0,0.1,0.1,0.1v0.1c0.2,0.5,0,1-0.4,1.2
			c-0.1,0-0.2,0.1-0.2,0.1c-0.8,0.2-1.7,0.4-2.6,0.4c0.7,0.5,1.4,1.1,1.9,1.8c0.3,0.4,0.3,1.1-0.2,1.4c0,0,0,0,0,0l-0.1,0.1
			c-0.4,0.3-1.1,0.2-1.4-0.2c0,0,0,0,0-0.1c-0.5-0.7-0.9-1.5-1.2-2.4c-0.3,0.8-0.7,1.6-1.2,2.4c-0.3,0.5-0.9,0.6-1.4,0.3
			c0,0,0,0-0.1,0l-0.1-0.1c-0.4-0.3-0.5-1-0.2-1.4c0,0,0,0,0,0c0.6-0.7,1.2-1.3,1.9-1.8C361.2,375.2,360.4,375.1,359.5,374.9z"/>
	</g>
	<g class="st8">
		<path class="st9" d="M450.3,325.7v-7.1c0.2-4.5,3.9-8,8.4-7.8c4.3,0.1,7.7,3.6,7.8,7.8v7.1h3.2v-7.1c-0.2-6.3-5.4-11.2-11.7-11
			c-6,0.2-10.9,5-11,11v7.1H450.3z"/>
		<rect x="445.8" y="325.7" class="st9" width="24.8" height="20.5"/>
		<path class="st9" d="M460.9,334.2c-0.1-1.5-1.4-2.6-2.9-2.5c-1.4,0.1-2.5,1.2-2.5,2.5c0,1,0.5,1.9,1.4,2.3l-0.5,4.7h3.4l-0.5-4.7
			C460.3,336.1,460.9,335.2,460.9,334.2z"/>
	</g>
	<g class="st8">
		<path class="st9" d="M98.5,102.3v-7.1c0.2-4.5,3.9-8,8.4-7.8c4.3,0.1,7.7,3.6,7.8,7.8v7.1h3.2v-7.1c-0.2-6.3-5.4-11.2-11.7-11
			c-6,0.2-10.9,5-11,11v7.1H98.5z"/>
		<rect x="94" y="102.3" class="st9" width="24.8" height="20.5"/>
		<path class="st9" d="M109,110.8c-0.1-1.5-1.4-2.6-2.9-2.5c-1.4,0.1-2.5,1.2-2.5,2.5c0,1,0.5,1.9,1.4,2.3l-0.5,4.7h3.5l-0.4-4.7
			C108.5,112.7,109,111.8,109,110.8z"/>
	</g>
	<g class="st8">
		<path class="st9" d="M408.5,48.4v-4.7c0.1-2.9,2.6-5.2,5.6-5.1c2.8,0.1,5,2.3,5.1,5.1v4.6h2.1v-4.6c0-4.1-3.3-7.5-7.5-7.5
			c-4.1,0-7.5,3.3-7.5,7.5l0,0v4.7H408.5z"/>
		<rect x="405.6" y="48.5" class="st9" width="16.3" height="13.5"/>
		<path class="st9" d="M415.4,54.1c-0.1-1-0.9-1.7-1.9-1.6c-0.9,0.1-1.6,0.8-1.6,1.6c0,0.6,0.4,1.2,0.9,1.5l-0.3,3.1h2.3l-0.3-3.1
			C415.1,55.3,415.4,54.7,415.4,54.1z"/>
	</g>
</g>
<g id="freepik--window-2--inject-6">
	<rect x="138" y="89.9" class="st10" width="318.3" height="169"/>
	<rect x="193.5" y="89.9" class="st11" width="262.8" height="15.8"/>
	<rect x="249.2" y="89.9" class="st12" width="207.1" height="15.8"/>
	<rect x="137.8" y="74.4" class="st7" width="318.5" height="15.8"/>
	<path class="st12" d="M358.9,85.5H151.8c-1.9,0-3.4-1.5-3.4-3.4l0,0l0,0c0-1.9,1.5-3.4,3.4-3.4c0,0,0,0,0,0h207.1
		c1.9,0,3.4,1.5,3.4,3.4l0,0C362.3,83.9,360.8,85.5,358.9,85.5z"/>
	<circle class="st10" cx="421.4" cy="82.5" r="2.9"/>
	<path class="st10" d="M436.3,82.5c0-1.6-1.3-2.9-2.9-2.9s-2.9,1.3-2.9,2.9c0,1.6,1.3,2.9,2.9,2.9c0,0,0,0,0,0
		C435,85.4,436.3,84.1,436.3,82.5L436.3,82.5z"/>
	<circle class="st10" cx="445.4" cy="82.5" r="2.9"/>
	<polygon class="st13" points="158.6,157.6 194,157.6 194,133.6 173.4,133.6 171.4,127.7 158.6,127.7 	"/>
	<polygon class="st13" points="158.6,204 194,204 194,179.9 173.4,179.9 171.4,174.1 158.6,174.1 	"/>
	<polygon class="st13" points="158.6,250.4 194,250.4 194,226.3 173.4,226.3 171.4,220.5 158.6,220.5 	"/>
	<polygon class="st13" points="207.8,157.6 243.1,157.6 243.1,133.6 222.6,133.6 220.5,127.7 207.8,127.7 	"/>
	<polygon class="st13" points="207.8,204 243.1,204 243.1,179.9 222.6,179.9 220.5,174.1 207.8,174.1 	"/>
	<polygon class="st13" points="207.8,250.4 243.1,250.4 243.1,226.3 222.6,226.3 220.5,220.5 207.8,220.5 	"/>
	<polygon class="st13" points="256.9,157.6 292.3,157.6 292.3,133.6 271.8,133.6 269.7,127.7 256.9,127.7 	"/>
	<polygon class="st13" points="256.9,204 292.3,204 292.3,179.9 271.8,179.9 269.7,174.1 256.9,174.1 	"/>
	<polygon class="st13" points="256.9,250.4 292.3,250.4 292.3,226.3 271.8,226.3 269.7,220.5 256.9,220.5 	"/>
	<polygon class="st13" points="306.1,157.6 341.5,157.6 341.5,133.6 320.9,133.6 318.8,127.7 306.1,127.7 	"/>
	<polygon class="st13" points="306.1,204 341.5,204 341.5,179.9 320.9,179.9 318.8,174.1 306.1,174.1 	"/>
	<polygon class="st13" points="306.1,250.4 341.5,250.4 341.5,226.3 320.9,226.3 318.8,220.5 306.1,220.5 	"/>
	<polygon class="st13" points="355.3,157.6 390.6,157.6 390.6,133.6 370.1,133.6 368,127.7 355.3,127.7 	"/>
	<polygon class="st13" points="355.3,204 390.6,204 390.6,179.9 370.1,179.9 368,174.1 355.3,174.1 	"/>
	<polygon class="st13" points="355.3,250.4 390.6,250.4 390.6,226.3 370.1,226.3 368,220.5 355.3,220.5 	"/>
	<polygon class="st13" points="404.4,157.6 439.8,157.6 439.8,133.6 419.3,133.6 417.2,127.7 404.4,127.7 	"/>
	<polygon class="st13" points="404.4,204 439.8,204 439.8,179.9 419.3,179.9 417.2,174.1 404.4,174.1 	"/>
	<polygon class="st13" points="404.4,250.4 439.8,250.4 439.8,226.3 419.3,226.3 417.2,220.5 404.4,220.5 	"/>
</g>
<g id="freepik--window-1--inject-6">
	<rect x="229.2" y="123.3" class="st14" width="127.5" height="112.5"/>
	<rect x="232.4" y="117.5" class="st10" width="127.5" height="112.5"/>
	<rect x="232.4" y="117.5" class="st7" width="127.5" height="8"/>
	<path class="st10" d="M288.2,165.7v-11.9c0-4.5,3.6-8.1,8.1-8.1s8.1,3.6,8.1,8.1v6.9h3.2v-6.9c0-6.3-5.1-11.4-11.4-11.4
		c-6.3,0-11.4,5.1-11.4,11.4v11.9H288.2z"/>
	<rect x="283.8" y="164.6" class="st15" width="24.8" height="20.5"/>
	<line class="st16" x1="312.1" y1="157" x2="313.7" y2="153.3"/>
	<line class="st16" x1="312.4" y1="161.4" x2="318.3" y2="161.4"/>
	<line class="st16" x1="311.7" y1="165.5" x2="314.9" y2="169"/>
	<path class="st7" d="M298.8,173.1c0-1.5-1.2-2.7-2.7-2.8c-1.5,0-2.7,1.2-2.8,2.7c0,1,0.5,2,1.4,2.4l-0.5,4.7h3.5l-0.5-4.7
		C298.2,175,298.8,174.1,298.8,173.1z"/>
	<path class="st10" d="M251.7,193.5h88.9c2.2,0,4,1.8,4,4v9.5c0,2.2-1.8,4-4,4h-88.9c-2.2,0-4-1.8-4-4v-9.5
		C247.7,195.3,249.5,193.5,251.7,193.5z"/>
	<path class="st6" d="M257.1,202.8c-0.5-0.1-0.8-0.6-0.8-1.1c0-0.1,0-0.1,0.1-0.2l0.1-0.1c0.2-0.5,0.7-0.8,1.2-0.6c0,0,0.1,0,0.1,0
		c0.8,0.3,1.6,0.7,2.3,1.2c-0.3-0.9-0.4-1.8-0.4-2.7c0-0.6,0.4-1,0.9-1.1c0,0,0,0,0.1,0h0.1c0.6,0,1,0.4,1,1c0,0,0,0,0,0.1
		c0,0.9-0.2,1.8-0.4,2.7c0.7-0.5,1.5-0.9,2.3-1.2c0.5-0.2,1,0,1.2,0.4c0,0.1,0,0.1,0.1,0.2v0.1c0.2,0.5,0,1-0.5,1.2
		c-0.1,0-0.1,0.1-0.2,0.1c-0.8,0.2-1.7,0.4-2.6,0.4c0.7,0.5,1.4,1.1,1.9,1.8c0.3,0.4,0.3,1.1-0.2,1.4c0,0,0,0,0,0l-0.1,0.1
		c-0.4,0.3-1,0.3-1.3-0.1c0-0.1-0.1-0.1-0.1-0.2c-0.5-0.7-0.9-1.5-1.2-2.4c-0.3,0.8-0.7,1.6-1.2,2.4c-0.2,0.5-0.8,0.6-1.3,0.4
		c-0.1,0-0.1-0.1-0.2-0.1l-0.1-0.1c-0.4-0.3-0.5-1-0.2-1.4c0,0,0,0,0,0c0.6-0.7,1.2-1.3,1.9-1.8C258.8,203.1,258,203,257.1,202.8z"
		/>
	<path class="st6" d="M267.3,202.8c-0.5-0.1-0.8-0.6-0.8-1.1c0-0.1,0-0.1,0.1-0.2l0-0.1c0.2-0.5,0.7-0.8,1.2-0.6c0,0,0.1,0,0.1,0
		c0.8,0.3,1.6,0.7,2.3,1.2c-0.3-0.9-0.4-1.8-0.4-2.7c0-0.6,0.4-1,0.9-1.1c0,0,0,0,0.1,0h0.1c0.6,0,1,0.4,1,1c0,0,0,0,0,0.1
		c0,0.9-0.2,1.8-0.4,2.7c0.7-0.5,1.5-0.9,2.3-1.2c0.5-0.2,1.1,0,1.3,0.6c0,0,0,0,0,0v0.1c0.2,0.5,0,1-0.5,1.2
		c-0.1,0-0.1,0.1-0.2,0.1c-0.8,0.2-1.7,0.4-2.6,0.4c0.7,0.5,1.4,1.1,1.9,1.8c0.3,0.4,0.3,1.1-0.2,1.4c0,0,0,0,0,0l-0.1,0.1
		c-0.4,0.3-1,0.3-1.3-0.1c0-0.1-0.1-0.1-0.1-0.2c-0.5-0.7-0.9-1.5-1.2-2.4c-0.3,0.8-0.7,1.6-1.2,2.4c-0.2,0.5-0.8,0.6-1.3,0.4
		c-0.1,0-0.1-0.1-0.2-0.1l-0.1-0.1c-0.4-0.3-0.5-1-0.2-1.4c0,0,0,0,0,0c0.6-0.7,1.2-1.3,1.9-1.8C269,203.1,268.1,203,267.3,202.8z"
		/>
	<path class="st6" d="M277.4,202.8c-0.5-0.1-0.9-0.7-0.7-1.2c0,0,0,0,0-0.1v-0.1c0.2-0.5,0.7-0.8,1.2-0.6c0,0,0.1,0,0.1,0
		c0.8,0.3,1.6,0.7,2.3,1.2c-0.3-0.9-0.4-1.8-0.4-2.7c0-0.6,0.4-1,0.9-1.1c0,0,0,0,0.1,0h0.1c0.6,0,1,0.4,1,1c0,0,0,0,0,0.1
		c0,0.9-0.2,1.8-0.4,2.7c0.7-0.5,1.5-0.9,2.3-1.2c0.5-0.2,1.1,0,1.3,0.6c0,0,0,0,0,0v0.1c0.2,0.5,0,1-0.5,1.2
		c-0.1,0-0.1,0.1-0.2,0.1c-0.8,0.2-1.7,0.4-2.6,0.4c0.7,0.5,1.4,1.1,1.9,1.8c0.3,0.4,0.3,1.1-0.2,1.4c0,0,0,0,0,0l-0.1,0.1
		c-0.4,0.3-1,0.3-1.3-0.1c0-0.1-0.1-0.1-0.1-0.2c-0.5-0.7-0.9-1.5-1.2-2.4c-0.3,0.8-0.7,1.6-1.2,2.4c-0.2,0.5-0.8,0.6-1.3,0.4
		c-0.1,0-0.1-0.1-0.2-0.1l-0.1-0.1c-0.4-0.3-0.5-1-0.2-1.4c0,0,0,0,0,0c0.6-0.7,1.2-1.3,1.9-1.8C279.1,203.1,278.2,203,277.4,202.8z
		"/>
	<path class="st6" d="M287.5,202.8c-0.5-0.1-0.9-0.7-0.7-1.2c0,0,0,0,0-0.1v-0.1c0.2-0.5,0.7-0.8,1.2-0.6c0,0,0.1,0,0.1,0
		c0.8,0.3,1.6,0.7,2.3,1.2c-0.2-0.9-0.4-1.8-0.4-2.7c0-0.6,0.4-1,0.9-1.1c0,0,0,0,0.1,0h0.1c0.6,0,1,0.4,1,1c0,0,0,0,0,0.1
		c0,0.9-0.2,1.8-0.4,2.7c0.7-0.5,1.5-0.9,2.3-1.2c0.5-0.2,1.1,0,1.3,0.6c0,0,0,0,0,0v0.1c0.2,0.5,0,1-0.5,1.2
		c-0.1,0-0.1,0.1-0.2,0.1c-0.8,0.2-1.7,0.4-2.6,0.4c0.7,0.5,1.4,1.1,1.9,1.8c0.3,0.4,0.3,1.1-0.2,1.4c0,0,0,0,0,0l-0.1,0.1
		c-0.4,0.3-1,0.3-1.3-0.1c0-0.1-0.1-0.1-0.1-0.2c-0.5-0.7-0.9-1.5-1.2-2.4c-0.3,0.8-0.8,1.6-1.3,2.4c-0.2,0.5-0.8,0.6-1.3,0.4
		c-0.1,0-0.1-0.1-0.2-0.1l-0.1-0.1c-0.4-0.3-0.5-1-0.2-1.4c0,0,0,0,0,0c0.6-0.7,1.2-1.3,1.9-1.8C289.2,203.1,288.4,203,287.5,202.8z
		"/>
	<path class="st6" d="M297.7,202.8c-0.5-0.1-0.9-0.7-0.7-1.2c0,0,0,0,0-0.1l0-0.1c0.2-0.5,0.8-0.8,1.3-0.6c0,0,0,0,0,0
		c0.8,0.3,1.6,0.7,2.3,1.2c-0.2-0.9-0.4-1.8-0.4-2.7c0-0.6,0.4-1,0.9-1.1c0,0,0,0,0.1,0h0.1c0.6,0,1,0.4,1,1c0,0,0,0,0,0.1
		c0,0.9-0.2,1.8-0.4,2.7c0.7-0.5,1.5-0.9,2.3-1.2c0.5-0.2,1.1,0,1.3,0.6c0,0,0,0,0,0v0.1c0.2,0.5,0,1-0.5,1.2
		c-0.1,0-0.1,0.1-0.2,0.1c-0.8,0.2-1.7,0.4-2.6,0.4c0.7,0.5,1.4,1.1,1.9,1.8c0.3,0.4,0.3,1.1-0.2,1.4c0,0,0,0,0,0l-0.1,0.1
		c-0.4,0.3-1,0.3-1.3-0.1c0-0.1-0.1-0.1-0.1-0.2c-0.5-0.7-0.9-1.5-1.2-2.4c-0.3,0.8-0.7,1.6-1.2,2.4c-0.2,0.5-0.8,0.6-1.3,0.4
		c-0.1,0-0.1-0.1-0.2-0.1l-0.1-0.1c-0.4-0.3-0.5-0.9-0.2-1.3c0,0,0.1-0.1,0.1-0.1c0.6-0.7,1.2-1.3,1.9-1.8
		C299.4,203.1,298.5,203,297.7,202.8z"/>
	<path class="st6" d="M307.9,202.8c-0.5-0.1-0.9-0.7-0.7-1.2c0,0,0,0,0-0.1l0-0.1c0.2-0.5,0.8-0.8,1.3-0.6c0,0,0,0,0,0
		c0.8,0.3,1.6,0.7,2.3,1.2c-0.2-0.9-0.4-1.8-0.4-2.7c0-0.6,0.4-1,0.9-1.1c0,0,0,0,0.1,0h0.1c0.6,0,1,0.4,1,1c0,0,0,0,0,0.1
		c0,0.9-0.2,1.8-0.4,2.7c0.7-0.5,1.5-0.9,2.3-1.2c0.5-0.2,1,0,1.2,0.5c0,0,0,0.1,0.1,0.1v0.1c0.2,0.5,0,1-0.5,1.2
		c-0.1,0-0.1,0.1-0.2,0.1c-0.8,0.2-1.7,0.4-2.6,0.4c0.7,0.5,1.4,1.1,1.9,1.8c0.3,0.4,0.3,1.1-0.2,1.4c0,0,0,0,0,0l-0.1,0.1
		c-0.4,0.3-1,0.3-1.3-0.1c0-0.1-0.1-0.1-0.1-0.2c-0.5-0.7-0.9-1.5-1.2-2.4c-0.3,0.8-0.7,1.6-1.2,2.4c-0.2,0.5-0.8,0.6-1.3,0.4
		c-0.1,0-0.1-0.1-0.2-0.1l-0.1-0.1c-0.4-0.3-0.5-0.9-0.2-1.3c0,0,0.1-0.1,0.1-0.1c0.6-0.7,1.2-1.3,1.9-1.8
		C309.6,203.1,308.7,203,307.9,202.8z"/>
	<path class="st6" d="M318,202.8c-0.5-0.1-0.9-0.7-0.7-1.2c0,0,0,0,0-0.1l0-0.1c0.2-0.5,0.8-0.8,1.3-0.6c0,0,0,0,0,0
		c0.8,0.3,1.6,0.7,2.3,1.2c-0.2-0.9-0.4-1.8-0.4-2.7c0-0.6,0.4-1,0.9-1.1c0,0,0,0,0.1,0h0.1c0.6,0,1,0.4,1,1c0,0,0,0,0,0.1
		c0,0.9-0.2,1.8-0.4,2.7c0.7-0.5,1.5-0.9,2.3-1.2c0.5-0.2,1,0,1.2,0.5c0,0,0,0.1,0.1,0.1v0.1c0.2,0.5,0,1-0.5,1.2
		c-0.1,0-0.1,0.1-0.2,0.1c-0.8,0.2-1.7,0.4-2.6,0.4c0.7,0.5,1.4,1.1,1.9,1.8c0.3,0.4,0.3,1.1-0.2,1.4c0,0,0,0,0,0l-0.1,0.1
		c-0.4,0.3-1,0.3-1.3-0.1c0-0.1-0.1-0.1-0.1-0.2c-0.5-0.7-0.9-1.5-1.2-2.4c-0.3,0.8-0.7,1.6-1.2,2.4c-0.2,0.5-0.8,0.6-1.3,0.4
		c-0.1,0-0.1-0.1-0.2-0.1l-0.1-0.1c-0.4-0.3-0.5-0.9-0.2-1.3c0,0,0.1-0.1,0.1-0.1c0.6-0.7,1.2-1.3,1.9-1.8
		C319.7,203.1,318.8,203,318,202.8z"/>
	<path class="st6" d="M328.1,202.8c-0.5-0.1-0.9-0.7-0.7-1.2c0,0,0,0,0-0.1v-0.1c0.2-0.5,0.8-0.8,1.3-0.6c0,0,0,0,0,0
		c0.8,0.3,1.6,0.7,2.3,1.2c-0.2-0.9-0.4-1.8-0.4-2.7c0-0.6,0.4-1,0.9-1.1c0,0,0,0,0.1,0h0.1c0.6,0,1,0.4,1,1c0,0,0,0,0,0.1
		c0,0.9-0.2,1.8-0.4,2.7c0.7-0.5,1.5-0.9,2.3-1.2c0.5-0.2,1,0,1.2,0.5c0,0,0,0.1,0.1,0.1v0.1c0.2,0.5,0,1-0.5,1.2
		c-0.1,0-0.1,0.1-0.2,0.1c-0.8,0.2-1.7,0.4-2.6,0.4c0.7,0.5,1.4,1.1,1.9,1.8c0.3,0.4,0.3,1.1-0.2,1.4c0,0,0,0,0,0l-0.1,0.1
		c-0.4,0.3-1,0.3-1.3-0.1c0-0.1-0.1-0.1-0.1-0.2c-0.5-0.7-0.9-1.5-1.2-2.4c-0.3,0.8-0.7,1.6-1.2,2.4c-0.2,0.5-0.8,0.6-1.3,0.4
		c-0.1,0-0.1-0.1-0.2-0.1l-0.1-0.1c-0.4-0.3-0.5-0.9-0.2-1.3c0,0,0.1-0.1,0.1-0.1c0.6-0.7,1.2-1.3,1.9-1.8
		C329.8,203.1,328.9,203,328.1,202.8z"/>
</g>
<g id="freepik--Character--inject-6">
	<path class="st10" d="M169.2,457.8h3.4c0.5,0,0.9-0.4,0.9-0.8l2.7-28.5h-10.7l2.7,28.5C168.4,457.4,168.7,457.8,169.2,457.8z"/>
	<path class="st10" d="M135.9,457.8h3.4c0.5,0,0.9-0.4,0.9-0.8l2.7-28.5h-10.7l2.7,28.5C135,457.4,135.4,457.8,135.9,457.8z"/>
	<path class="st10" d="M190.2,457.8h3.4c0.5,0,0.9-0.4,0.9-0.8l2.7-28.5h-10.7l2.7,28.5C189.4,457.4,189.7,457.8,190.2,457.8z"/>
	<path class="st10" d="M224.9,457.8h3.4c0.5,0,0.9-0.4,0.9-0.8l2.7-28.5h-10.7l2.7,28.5C224,457.4,224.4,457.8,224.9,457.8z"/>
	<path class="st10" d="M174.4,429.6h68.5c0,0,7-23.4,12.5-46c5.5-22.6,11.7-51,5.1-56.9c-6.6-5.9-24.1,4.3-37.4,7s-16-0.4-24.9-9.7
		s-16.7-24.5-31.9-34.3s-26.5-11.3-37-4.7c-6.7,6.3-10.7,14.9-11.3,24.1c-0.8,15.2,3.5,34.3,9,44.8
		C132.4,364.5,174.4,429.6,174.4,429.6z"/>
	<path class="st16" d="M164.8,386.7h74c0,0,13.3-13.3,15.3-45.3"/>
	<path class="st17" d="M216.5,257.3l-8.4,5.1c0,0,5.8,31.9,4.4,48.6s-8.4,32.8-8.4,32.8h22.6c0,0,8.4-20,12.1-34s-2.8-46.8-2.8-46.8
		L216.5,257.3z"/>
	<path class="st11" d="M309.4,342.3c0,0,4.8-1.5,6.1-1.5s5.5,3.3,5.5,3.3s0.2,1.2-0.8,1.5s-4.2-2-4.2-2l-5.4,1.6L309.4,342.3z"/>
	<path class="st11" d="M309.9,339.3c2.1,0.3,4.1,0.7,6.1,1.4c1.1,0.6,3.5,5.4,3.5,5.4s-0.4,1.1-1.3,1s-2.9-3.6-2.9-3.6l-5.6-1
		L309.9,339.3z"/>
	<path class="st11" d="M304.7,337.7l6.3,1.5l4,2.7l2.3,5.6c-0.5,0.4-1.1,0.7-1.7,0.6c-1-0.2-5-4.6-5-4.6l-5.7-3.7l-1.9-2.1H304.7z"
		/>
	<path class="st11" d="M290.9,336c0,0,9.8,0.4,11.9,0.4s7.7,4.4,8.6,4.8s5,6.1,5,6.1s0.2,0-1.1,0.4s-3.5-1-3.5-1l-2.7-3.3l-6.5-1.1
		c0,0,4.8,2.5,6,2.9s1.9,1.7,1.5,2.5s-6.2-1.7-6.2-1.7c-1.4,0.7-3.1,0.7-4.5,0c-2.3-1.1-2.6-1.2-5-2.3s-7.3-4-7.3-4L290.9,336z"/>
	<path class="st15" d="M241,267.6c0,0,3.7,0.7,4.7,2.8s7,49.6,7,49.6l40,14.6l-0.8,14c0,0-47.4-5.8-50.6-5.1s-11.2,1.6-14.4-0.9
		s9.1-13.2,11.3-23.1c5.3-23.3,4.7-39.3,4.7-39.3S236.3,264.8,241,267.6z"/>
	<path class="st15" d="M246.1,294.8c0,0-5.8,23.3-8.4,29.6s-7.7,16.8-7.7,16.8l-5.6,0.9c0,0,11.6-25.1,13.7-35.1s-2.6-35.4-2.8-36.3
		s1.6-6.8,5.1-5.6"/>
	<polygon class="st10" points="235.6,288.3 228.9,305.3 221.6,287.1 230.3,280.4 	"/>
	<polygon class="st10" points="237.2,274.5 239.8,294.3 228.9,286 	"/>
	<path class="st11" d="M267.7,239.3c0,0-0.2,13.1-1.3,15c-1.1,1.9-3.3,4.6-3.4,7.1c-0.1,2.5,2.9,7.9,1.1,9.7c-1.2,1-2.8,1.4-4.3,0.9
		c0,0-5.9,7-9.1,8.6s-12-3-12-3l-8.7,9l-16.1-29.1l9.2-6.2c0,0,3.6-18.3,14.9-22.1S266,234.7,267.7,239.3z"/>
	<path class="st16" d="M235.7,255.9c0,0-3.5,7.4-0.5,12"/>
	<path class="st6" d="M258.1,258.1c-0.4,1-0.4,2,0.1,2.2s1.2-0.4,1.6-1.4c0.4-1,0.4-2,0-2.2S258.6,257.1,258.1,258.1z"/>
	<path class="st16" d="M256,272.6c0,0-3.5-0.7-3.5-3.5"/>
	<line class="st16" x1="255.7" y1="259" x2="258.3" y2="261.4"/>
	<path class="st16" d="M262.9,254.3c0,0-0.1-3.4-5.7-2"/>
	<path class="st7" d="M275.4,229.5c-2.5,0.3-4.9,2.2-5.7,0.5c-0.8-1.6-0.3-7.6-4.4-8.2c-4.1-0.5-3.8,1.4-5.2,1.6s-3-6-8.2-5.2
		c-5.2,0.8-8.4,3-8.7,4.1c-8.9-0.1-14.4,3.6-18.4,10.9c-4.3,8-1.7,18.1-1.7,18.1s-4.1,3.2-0.8,4.1s13.3,0.4,13.3,0.4l-1.1-0.5
		c-1.1-0.5-2.8-4,0.7-9.1s5.9-0.7,6.2,1.5s0.5,4,1.8,4.6s2.1-0.8,2.5-2.7s4.2-2,7-3.2s0.1-3.8-2.2-7.6s3.6-4.8,9.2-1.3
		c3.2,2,4.9,3.1,6.5,3.3l0.1,0.1c0,0,2.7,2.2,4.9,0.3s3.5-2.2,5.4-4.4S277.9,229.3,275.4,229.5z"/>
	<path class="st10" d="M214.9,255.9l15.4,29.8l-9.8,10.2c0,0-8.4-22.6-9.3-28.2s-1.6-9.5-1.6-9.5L214.9,255.9z"/>
	<path class="st7" d="M223.8,340.1c0,0,45-2.3,50.7,0c5.7,2.3,7,8.3,6.3,14.3s-4,41.3-5.3,51.3c-1.3,10-2,22.3-1,24.7s4,6.3,3,8.7
		s-2.7,3.3-2.7,4.3c0.2,1,0.7,1.9,1.3,2.7c0,0,12.3,5.3,16.7,7s4.7,3,3.7,3.7s-21.7,0-25.3,0c-3.7,0-10.7-2.3-10.7-2.3v1.7h-9v-6.3
		c0-2,0.1-4,0.3-6c0,0-1.7-4.3-1.3-6s2.3-5.3,3-8.7s0-8-0.3-11.7c-0.3-2.7-0.2-5.4,0.3-8c0.3-2-2-38.3-2-38.3s-26.3,8-29,8.3
		s-24.3,8.3-33.3,6s3.7-30.7,13.7-40.3S223.8,340.1,223.8,340.1z"/>
	<path class="st7" d="M205.5,336.7c0,0,29.7,2.3,33,5.7s2.3,10,2.3,14.3s-4,62-4.3,65.3s3.3,6.7,2,9c-1.1,1.8-1.8,3.9-2,6
		c0,1,9,8.3,12.7,10.3s14,4.3,15.7,6c1.7,1.7,1.3,3-1.7,4s-28,0-28,0s-3.7,0-5-1c-0.7-0.6-1.5-1-2.3-1.3l-0.3,2.2h-13
		c-0.7-3.6-1.1-7.2-1.3-10.9c0.1-2.8,0.5-5.6,1-8.3c-1.2-1.8-1.7-3.9-1.7-6c0.3-3,2.7-4.3,2.7-6.3s-2-8-1.7-11.7s0.7-8,0.7-8
		l-3-29.3c0,0-20,11-29.7,10s-12.3-2.3-15-7s-2.7-24.3,1.7-32S196.5,333.1,205.5,336.7z"/>
	<path class="st15" d="M209.5,258.3c0,0,7,17.5,7.7,27.9s-0.2,34.9-2.8,41.9s-3.7,11.4-3.7,11.4s-23.3,3.5-26.3,4.6
		s-9.3,10.3-10.5,17.9c-0.3,2.2-0.6,4.6-0.7,6.9c-0.3,5.2,0.1,10.5,1.2,15.6c0.2,1,0.2,1.8-0.1,2c-0.9,0.9-13.4-4.7-17.6-19.1
		s-2.1-31.4,1.6-39.3s18.1-55.2,24.4-61.5S209.5,258.3,209.5,258.3z"/>
	<path class="st11" d="M288.3,342.1c0,0,8.8,1.1,11.1,1.7c1.5,0.5,2.8,1.4,3.8,2.6l-0.9,0.8l-6.4-2.4L288.3,342.1z"/>
	<path class="st11" d="M291.9,343.5c0,0,5.4,0.3,6,1s3.5,5.5,3.5,5.5l-1.3,0.9l-3.6-3.4l-4.6-2.5V343.5z"/>
	<path class="st11" d="M282,341.5c0,0,10,0.9,12,2s4.5,6.3,4.5,6.3l-1.4,0.6l-4.8-4.8l-11.9-2L282,341.5z"/>
	<path class="st11" d="M281.6,346.6c0,0,2.8,1.4,4.2,1.4s5.9-1.5,5.9-1.5c-1.8-0.8-3.5-1.4-5.4-2
		C285.4,344.4,281.6,346.6,281.6,346.6z"/>
	<path class="st11" d="M269.9,337c0,0,11.9,2.8,13.3,3.7s8.2,4.3,9.1,4.8s3.4,5.1,3.4,5.1s-1.7,2-2.3,0.6c-0.9-1.5-1.9-2.8-3.1-4
		l-5.1-1.7c-1.9,0.9-3.9,1.4-6,1.4c-3.1,0-6.5-3.1-6.5-3.1l-5.7,1.5L269.9,337z"/>
	<path class="st15" d="M199.3,270.5c0,0,7.1,6.2,7.6,13.1s0.5,9.8,0.6,10.9s4.2,31.7,4.2,31.7l59.4,9.6l-1.1,13.2l-67.7-1.3
		c0,0-4.6,0.9-7.1-2.4s-17-54.5-17-54.5"/>
	<path class="st16" d="M200.1,331c-0.7,0.6-1.3,1.2-1.8,1.9"/>
	<path class="st16" d="M210.9,327.3c-2.9,0-5.8,0.7-8.4,2"/>
	<path class="st16" d="M206.8,329.9c0,0-5.7,1.9-6.9,5.9"/>
	<path class="st10" d="M174.4,429.6c0,0-1.2-41.7-11.7-69s-16.7-30.8-21-29.6c-4.3,1.2-10.5,8.6-14.4,3.5
		c-3.9-5.1-9.7-19.1-7.4-31.5s7-14.8,9.3-17.9c2.4-3.1-10.1,4.3-15.6,12.5s-5.4,28-2.3,48.7s10.9,79.1,13.6,81.4s9.3,2.3,9.3,2.3
		h35.8L174.4,429.6z"/>
</g>
<g id="freepik--Device--inject-6">
	<rect x="277.2" y="347.8" class="st10" width="91.5" height="4"/>
	<rect x="324.4" y="347.8" class="st18" width="44.3" height="4"/>
	<polygon class="st11" points="381.4,312.1 337.1,312.1 324.4,347.8 368.7,347.8 	"/>
</g>
<g id="freepik--Table--inject-6">
	<path class="st19" d="M335.6,457.9h-0.6c-1.4,0-2.6-1.2-2.6-2.6v-101l0,0h5.8l0,0v101C338.1,456.7,337,457.9,335.6,457.9z"/>
	<path class="st19" d="M346.1,457.9h-0.6c-1.4,0-2.6-1.2-2.6-2.6v-101l0,0h5.8l0,0v101C348.7,456.7,347.6,457.9,346.1,457.9
		C346.1,457.9,346.1,457.9,346.1,457.9z"/>
	<path class="st19" d="M264,457.9h-0.6c-1.4,0-2.6-1.2-2.6-2.6v-101l0,0h5.8l0,0v101C266.6,456.7,265.4,457.9,264,457.9z"/>
	<path class="st19" d="M408.5,457.9h-0.6c-1.4,0-2.6-1.2-2.6-2.6v-101l0,0h5.8l0,0v101C411,456.7,409.9,457.9,408.5,457.9z"/>
	<rect x="254" y="351.9" class="st10" width="162.5" height="4.7"/>
	<rect x="254" y="402" class="st10" width="162.5" height="4.7"/>
	<rect x="283" y="397.2" class="st10" width="42.4" height="4.7"/>
	<rect x="306.4" y="397.2" class="st10" width="19.1" height="4.7"/>
	<rect x="347.4" y="397.2" class="st10" width="42.4" height="4.7"/>
	<rect x="370.8" y="397.2" class="st10" width="19.1" height="4.7"/>
	<rect x="279.5" y="392.2" class="st10" width="42.4" height="4.7"/>
	<rect x="302.9" y="392.2" class="st10" width="19.1" height="4.7"/>
</g>
<g id="freepik--Floor--inject-6">
	<line class="st16" x1="58.2" y1="457.8" x2="496.2" y2="457.8"/>
</g>
</svg>
